<svg>
<circle cx="146.500000" cy="570.000000" r="2.500000" fill="darkorange" stroke="black" stroke-width="2.000000" />
<circle cx="153.000000" cy="570.000000" r="2.500000" fill="darkorange" stroke="black" stroke-width="2.000000" />
<circle cx="159.500000" cy="570.000000" r="2.500000" fill="darkorange" stroke="black" stroke-width="2.000000" />
<circle cx="166.000000" cy="570.000000" r="2.500000" fill="darkorange" stroke="black" stroke-width="2.000000" />
<circle cx="172.500000" cy="570.000000" r="2.500000" fill="darkorange" stroke="black" stroke-width="2.000000" />
<circle cx="179.000000" cy="570.000000" r="2.500000" fill="darkorange" stroke="black" stroke-width="2.000000" />
<circle cx="185.500000" cy="570.000000" r="2.500000" fill="darkorange" stroke="black" stroke-width="2.000000" />
<circle cx="140.000000" cy="576.500000" r="2.500000" fill="darkorange" stroke="black" stroke-width="2.000000" />
<circle cx="140.000000" cy="583.000000" r="2.500000" fill="darkorange" stroke="black" stroke-width="2.000000" />
<circle cx="146.500000" cy="589.500000" r="2.500000" fill="darkorange" stroke="black" stroke-width="2.000000" />
<circle cx="153.000000" cy="589.500000" r="2.500000" fill="darkorange" stroke="black" stroke-width="2.000000" />
<circle cx="159.500000" cy="589.500000" r="2.500000" fill="darkorange" stroke="black" stroke-width="2.000000" />
<circle cx="166.000000" cy="589.500000" r="2.500000" fill="darkorange" stroke="black" stroke-width="2.000000" />
<circle cx="172.500000" cy="589.500000" r="2.500000" fill="darkorange" stroke="black" stroke-width="2.000000" />
<circle cx="179.000000" cy="589.500000" r="2.500000" fill="darkorange" stroke="black" stroke-width="2.000000" />
<circle cx="185.500000" cy="596.000000" r="2.500000" fill="darkorange" stroke="black" stroke-width="2.000000" />
<circle cx="185.500000" cy="602.500000" r="2.500000" fill="darkorange" stroke="black" stroke-width="2.000000" />
<circle cx="185.500000" cy="609.000000" r="2.500000" fill="darkorange" stroke="black" stroke-width="2.000000" />
<circle cx="140.000000" cy="615.500000" r="2.500000" fill="darkorange" stroke="black" stroke-width="2.000000" />
<circle cx="146.500000" cy="615.500000" r="2.500000" fill="darkorange" stroke="black" stroke-width="2.000000" />
<circle cx="153.000000" cy="615.500000" r="2.500000" fill="darkorange" stroke="black" stroke-width="2.000000" />
<circle cx="159.500000" cy="615.500000" r="2.500000" fill="darkorange" stroke="black" stroke-width="2.000000" />
<circle cx="166.000000" cy="615.500000" r="2.500000" fill="darkorange" stroke="black" stroke-width="2.000000" />
<circle cx="172.500000" cy="615.500000" r="2.500000" fill="darkorange" stroke="black" stroke-width="2.000000" />
<circle cx="179.000000" cy="615.500000" r="2.500000" fill="darkorange" stroke="black" stroke-width="2.000000" />
<circle cx="204.500000" cy="570.000000" r="2.500000" fill="darkorange" stroke="black" stroke-width="2.000000" />
<circle cx="211.000000" cy="570.000000" r="2.500000" fill="darkorange" stroke="black" stroke-width="2.000000" />
<circle cx="217.500000" cy="570.000000" r="2.500000" fill="darkorange" stroke="black" stroke-width="2.000000" />
<circle cx="224.000000" cy="570.000000" r="2.500000" fill="darkorange" stroke="black" stroke-width="2.000000" />
<circle cx="230.500000" cy="570.000000" r="2.500000" fill="darkorange" stroke="black" stroke-width="2.000000" />
<circle cx="237.000000" cy="570.000000" r="2.500000" fill="darkorange" stroke="black" stroke-width="2.000000" />
<circle cx="198.000000" cy="576.500000" r="2.500000" fill="darkorange" stroke="black" stroke-width="2.000000" />
<circle cx="243.500000" cy="576.500000" r="2.500000" fill="darkorange" stroke="black" stroke-width="2.000000" />
<circle cx="198.000000" cy="583.000000" r="2.500000" fill="darkorange" stroke="black" stroke-width="2.000000" />
<circle cx="243.500000" cy="583.000000" r="2.500000" fill="darkorange" stroke="black" stroke-width="2.000000" />
<circle cx="198.000000" cy="589.500000" r="2.500000" fill="darkorange" stroke="black" stroke-width="2.000000" />
<circle cx="243.500000" cy="589.500000" r="2.500000" fill="darkorange" stroke="black" stroke-width="2.000000" />
<circle cx="198.000000" cy="596.000000" r="2.500000" fill="darkorange" stroke="black" stroke-width="2.000000" />
<circle cx="204.500000" cy="596.000000" r="2.500000" fill="darkorange" stroke="black" stroke-width="2.000000" />
<circle cx="211.000000" cy="596.000000" r="2.500000" fill="darkorange" stroke="black" stroke-width="2.000000" />
<circle cx="217.500000" cy="596.000000" r="2.500000" fill="darkorange" stroke="black" stroke-width="2.000000" />
<circle cx="224.000000" cy="596.000000" r="2.500000" fill="darkorange" stroke="black" stroke-width="2.000000" />
<circle cx="230.500000" cy="596.000000" r="2.500000" fill="darkorange" stroke="black" stroke-width="2.000000" />
<circle cx="237.000000" cy="596.000000" r="2.500000" fill="darkorange" stroke="black" stroke-width="2.000000" />
<circle cx="198.000000" cy="602.500000" r="2.500000" fill="darkorange" stroke="black" stroke-width="2.000000" />
<circle cx="198.000000" cy="609.000000" r="2.500000" fill="darkorange" stroke="black" stroke-width="2.000000" />
<circle cx="198.000000" cy="615.500000" r="2.500000" fill="darkorange" stroke="black" stroke-width="2.000000" />
<circle cx="256.000000" cy="570.000000" r="2.500000" fill="darkorange" stroke="black" stroke-width="2.000000" />
<circle cx="262.500000" cy="570.000000" r="2.500000" fill="darkorange" stroke="black" stroke-width="2.000000" />
<circle cx="269.000000" cy="570.000000" r="2.500000" fill="darkorange" stroke="black" stroke-width="2.000000" />
<circle cx="275.500000" cy="570.000000" r="2.500000" fill="darkorange" stroke="black" stroke-width="2.000000" />
<circle cx="282.000000" cy="570.000000" r="2.500000" fill="darkorange" stroke="black" stroke-width="2.000000" />
<circle cx="288.500000" cy="570.000000" r="2.500000" fill="darkorange" stroke="black" stroke-width="2.000000" />
<circle cx="295.000000" cy="570.000000" r="2.500000" fill="darkorange" stroke="black" stroke-width="2.000000" />
<circle cx="301.500000" cy="570.000000" r="2.500000" fill="darkorange" stroke="black" stroke-width="2.000000" />
<circle cx="256.000000" cy="576.500000" r="2.500000" fill="darkorange" stroke="black" stroke-width="2.000000" />
<circle cx="301.500000" cy="576.500000" r="2.500000" fill="darkorange" stroke="black" stroke-width="2.000000" />
<circle cx="256.000000" cy="583.000000" r="2.500000" fill="darkorange" stroke="black" stroke-width="2.000000" />
<circle cx="256.000000" cy="589.500000" r="2.500000" fill="darkorange" stroke="black" stroke-width="2.000000" />
<circle cx="262.500000" cy="589.500000" r="2.500000" fill="darkorange" stroke="black" stroke-width="2.000000" />
<circle cx="269.000000" cy="589.500000" r="2.500000" fill="darkorange" stroke="black" stroke-width="2.000000" />
<circle cx="275.500000" cy="589.500000" r="2.500000" fill="darkorange" stroke="black" stroke-width="2.000000" />
<circle cx="256.000000" cy="596.000000" r="2.500000" fill="darkorange" stroke="black" stroke-width="2.000000" />
<circle cx="262.500000" cy="596.000000" r="2.500000" fill="darkorange" stroke="black" stroke-width="2.000000" />
<circle cx="269.000000" cy="596.000000" r="2.500000" fill="darkorange" stroke="black" stroke-width="2.000000" />
<circle cx="275.500000" cy="596.000000" r="2.500000" fill="darkorange" stroke="black" stroke-width="2.000000" />
<circle cx="256.000000" cy="602.500000" r="2.500000" fill="darkorange" stroke="black" stroke-width="2.000000" />
<circle cx="256.000000" cy="609.000000" r="2.500000" fill="darkorange" stroke="black" stroke-width="2.000000" />
<circle cx="256.000000" cy="615.500000" r="2.500000" fill="darkorange" stroke="black" stroke-width="2.000000" />
<circle cx="314.000000" cy="570.000000" r="2.500000" fill="darkorange" stroke="black" stroke-width="2.000000" />
<circle cx="320.500000" cy="570.000000" r="2.500000" fill="darkorange" stroke="black" stroke-width="2.000000" />
<circle cx="327.000000" cy="570.000000" r="2.500000" fill="darkorange" stroke="black" stroke-width="2.000000" />
<circle cx="333.500000" cy="570.000000" r="2.500000" fill="darkorange" stroke="black" stroke-width="2.000000" />
<circle cx="340.000000" cy="570.000000" r="2.500000" fill="darkorange" stroke="black" stroke-width="2.000000" />
<circle cx="346.500000" cy="570.000000" r="2.500000" fill="darkorange" stroke="black" stroke-width="2.000000" />
<circle cx="353.000000" cy="570.000000" r="2.500000" fill="darkorange" stroke="black" stroke-width="2.000000" />
<circle cx="359.500000" cy="570.000000" r="2.500000" fill="darkorange" stroke="black" stroke-width="2.000000" />
<circle cx="314.000000" cy="576.500000" r="2.500000" fill="darkorange" stroke="black" stroke-width="2.000000" />
<circle cx="314.000000" cy="583.000000" r="2.500000" fill="darkorange" stroke="black" stroke-width="2.000000" />
<circle cx="314.000000" cy="589.500000" r="2.500000" fill="darkorange" stroke="black" stroke-width="2.000000" />
<circle cx="314.000000" cy="596.000000" r="2.500000" fill="darkorange" stroke="black" stroke-width="2.000000" />
<circle cx="314.000000" cy="602.500000" r="2.500000" fill="darkorange" stroke="black" stroke-width="2.000000" />
<circle cx="314.000000" cy="609.000000" r="2.500000" fill="darkorange" stroke="black" stroke-width="2.000000" />
<circle cx="314.000000" cy="615.500000" r="2.500000" fill="darkorange" stroke="black" stroke-width="2.000000" />
<circle cx="320.500000" cy="615.500000" r="2.500000" fill="darkorange" stroke="black" stroke-width="2.000000" />
<circle cx="327.000000" cy="615.500000" r="2.500000" fill="darkorange" stroke="black" stroke-width="2.000000" />
<circle cx="333.500000" cy="615.500000" r="2.500000" fill="darkorange" stroke="black" stroke-width="2.000000" />
<circle cx="340.000000" cy="615.500000" r="2.500000" fill="darkorange" stroke="black" stroke-width="2.000000" />
<circle cx="346.500000" cy="615.500000" r="2.500000" fill="darkorange" stroke="black" stroke-width="2.000000" />
<circle cx="353.000000" cy="615.500000" r="2.500000" fill="darkorange" stroke="black" stroke-width="2.000000" />
<circle cx="359.500000" cy="615.500000" r="2.500000" fill="darkorange" stroke="black" stroke-width="2.000000" />
<rect x="0.000000" y="630.000000" width="20.000000" height="30.000000" fill="yellow" stroke="black" stroke-width="2.000000" />
<rect x="5.000000" y="637.500000" width="20.000000" height="30.000000" fill="blue" stroke="black" stroke-width="2.000000" />
<rect x="144.000000" y="567.500000" width="5.000000" height="5.000000" fill="none" stroke="red" stroke-width="1" />
<rect x="150.500000" y="567.500000" width="5.000000" height="5.000000" fill="none" stroke="red" stroke-width="1" />
<rect x="157.000000" y="567.500000" width="5.000000" height="5.000000" fill="none" stroke="red" stroke-width="1" />
<rect x="163.500000" y="567.500000" width="5.000000" height="5.000000" fill="none" stroke="red" stroke-width="1" />
<rect x="170.000000" y="567.500000" width="5.000000" height="5.000000" fill="none" stroke="red" stroke-width="1" />
<rect x="176.500000" y="567.500000" width="5.000000" height="5.000000" fill="none" stroke="red" stroke-width="1" />
<rect x="183.000000" y="567.500000" width="5.000000" height="5.000000" fill="none" stroke="red" stroke-width="1" />
<rect x="137.500000" y="574.000000" width="5.000000" height="5.000000" fill="none" stroke="red" stroke-width="1" />
<rect x="137.500000" y="580.500000" width="5.000000" height="5.000000" fill="none" stroke="red" stroke-width="1" />
<rect x="144.000000" y="587.000000" width="5.000000" height="5.000000" fill="none" stroke="red" stroke-width="1" />
<rect x="150.500000" y="587.000000" width="5.000000" height="5.000000" fill="none" stroke="red" stroke-width="1" />
<rect x="157.000000" y="587.000000" width="5.000000" height="5.000000" fill="none" stroke="red" stroke-width="1" />
<rect x="163.500000" y="587.000000" width="5.000000" height="5.000000" fill="none" stroke="red" stroke-width="1" />
<rect x="170.000000" y="587.000000" width="5.000000" height="5.000000" fill="none" stroke="red" stroke-width="1" />
<rect x="176.500000" y="587.000000" width="5.000000" height="5.000000" fill="none" stroke="red" stroke-width="1" />
<rect x="183.000000" y="593.500000" width="5.000000" height="5.000000" fill="none" stroke="red" stroke-width="1" />
<rect x="183.000000" y="600.000000" width="5.000000" height="5.000000" fill="none" stroke="red" stroke-width="1" />
<rect x="183.000000" y="606.500000" width="5.000000" height="5.000000" fill="none" stroke="red" stroke-width="1" />
<rect x="137.500000" y="613.000000" width="5.000000" height="5.000000" fill="none" stroke="red" stroke-width="1" />
<rect x="144.000000" y="613.000000" width="5.000000" height="5.000000" fill="none" stroke="red" stroke-width="1" />
<rect x="150.500000" y="613.000000" width="5.000000" height="5.000000" fill="none" stroke="red" stroke-width="1" />
<rect x="157.000000" y="613.000000" width="5.000000" height="5.000000" fill="none" stroke="red" stroke-width="1" />
<rect x="163.500000" y="613.000000" width="5.000000" height="5.000000" fill="none" stroke="red" stroke-width="1" />
<rect x="170.000000" y="613.000000" width="5.000000" height="5.000000" fill="none" stroke="red" stroke-width="1" />
<rect x="176.500000" y="613.000000" width="5.000000" height="5.000000" fill="none" stroke="red" stroke-width="1" />
<rect x="202.000000" y="567.500000" width="5.000000" height="5.000000" fill="none" stroke="red" stroke-width="1" />
<rect x="208.500000" y="567.500000" width="5.000000" height="5.000000" fill="none" stroke="red" stroke-width="1" />
<rect x="215.000000" y="567.500000" width="5.000000" height="5.000000" fill="none" stroke="red" stroke-width="1" />
<rect x="221.500000" y="567.500000" width="5.000000" height="5.000000" fill="none" stroke="red" stroke-width="1" />
<rect x="228.000000" y="567.500000" width="5.000000" height="5.000000" fill="none" stroke="red" stroke-width="1" />
<rect x="234.500000" y="567.500000" width="5.000000" height="5.000000" fill="none" stroke="red" stroke-width="1" />
<rect x="195.500000" y="574.000000" width="5.000000" height="5.000000" fill="none" stroke="red" stroke-width="1" />
<rect x="241.000000" y="574.000000" width="5.000000" height="5.000000" fill="none" stroke="red" stroke-width="1" />
<rect x="195.500000" y="580.500000" width="5.000000" height="5.000000" fill="none" stroke="red" stroke-width="1" />
<rect x="241.000000" y="580.500000" width="5.000000" height="5.000000" fill="none" stroke="red" stroke-width="1" />
<rect x="195.500000" y="587.000000" width="5.000000" height="5.000000" fill="none" stroke="red" stroke-width="1" />
<rect x="241.000000" y="587.000000" width="5.000000" height="5.000000" fill="none" stroke="red" stroke-width="1" />
<rect x="195.500000" y="593.500000" width="5.000000" height="5.000000" fill="none" stroke="red" stroke-width="1" />
<rect x="202.000000" y="593.500000" width="5.000000" height="5.000000" fill="none" stroke="red" stroke-width="1" />
<rect x="208.500000" y="593.500000" width="5.000000" height="5.000000" fill="none" stroke="red" stroke-width="1" />
<rect x="215.000000" y="593.500000" width="5.000000" height="5.000000" fill="none" stroke="red" stroke-width="1" />
<rect x="221.500000" y="593.500000" width="5.000000" height="5.000000" fill="none" stroke="red" stroke-width="1" />
<rect x="228.000000" y="593.500000" width="5.000000" height="5.000000" fill="none" stroke="red" stroke-width="1" />
<rect x="234.500000" y="593.500000" width="5.000000" height="5.000000" fill="none" stroke="red" stroke-width="1" />
<rect x="195.500000" y="600.000000" width="5.000000" height="5.000000" fill="none" stroke="red" stroke-width="1" />
<rect x="195.500000" y="606.500000" width="5.000000" height="5.000000" fill="none" stroke="red" stroke-width="1" />
<rect x="195.500000" y="613.000000" width="5.000000" height="5.000000" fill="none" stroke="red" stroke-width="1" />
<rect x="253.500000" y="567.500000" width="5.000000" height="5.000000" fill="none" stroke="red" stroke-width="1" />
<rect x="260.000000" y="567.500000" width="5.000000" height="5.000000" fill="none" stroke="red" stroke-width="1" />
<rect x="266.500000" y="567.500000" width="5.000000" height="5.000000" fill="none" stroke="red" stroke-width="1" />
<rect x="273.000000" y="567.500000" width="5.000000" height="5.000000" fill="none" stroke="red" stroke-width="1" />
<rect x="279.500000" y="567.500000" width="5.000000" height="5.000000" fill="none" stroke="red" stroke-width="1" />
<rect x="286.000000" y="567.500000" width="5.000000" height="5.000000" fill="none" stroke="red" stroke-width="1" />
<rect x="292.500000" y="567.500000" width="5.000000" height="5.000000" fill="none" stroke="red" stroke-width="1" />
<rect x="299.000000" y="567.500000" width="5.000000" height="5.000000" fill="none" stroke="red" stroke-width="1" />
<rect x="253.500000" y="574.000000" width="5.000000" height="5.000000" fill="none" stroke="red" stroke-width="1" />
<rect x="299.000000" y="574.000000" width="5.000000" height="5.000000" fill="none" stroke="red" stroke-width="1" />
<rect x="253.500000" y="580.500000" width="5.000000" height="5.000000" fill="none" stroke="red" stroke-width="1" />
<rect x="253.500000" y="587.000000" width="5.000000" height="5.000000" fill="none" stroke="red" stroke-width="1" />
<rect x="260.000000" y="587.000000" width="5.000000" height="5.000000" fill="none" stroke="red" stroke-width="1" />
<rect x="266.500000" y="587.000000" width="5.000000" height="5.000000" fill="none" stroke="red" stroke-width="1" />
<rect x="273.000000" y="587.000000" width="5.000000" height="5.000000" fill="none" stroke="red" stroke-width="1" />
<rect x="253.500000" y="593.500000" width="5.000000" height="5.000000" fill="none" stroke="red" stroke-width="1" />
<rect x="260.000000" y="593.500000" width="5.000000" height="5.000000" fill="none" stroke="red" stroke-width="1" />
<rect x="266.500000" y="593.500000" width="5.000000" height="5.000000" fill="none" stroke="red" stroke-width="1" />
<rect x="273.000000" y="593.500000" width="5.000000" height="5.000000" fill="none" stroke="red" stroke-width="1" />
<rect x="253.500000" y="600.000000" width="5.000000" height="5.000000" fill="none" stroke="red" stroke-width="1" />
<rect x="253.500000" y="606.500000" width="5.000000" height="5.000000" fill="none" stroke="red" stroke-width="1" />
<rect x="253.500000" y="613.000000" width="5.000000" height="5.000000" fill="none" stroke="red" stroke-width="1" />
<rect x="311.500000" y="567.500000" width="5.000000" height="5.000000" fill="none" stroke="red" stroke-width="1" />
<rect x="318.000000" y="567.500000" width="5.000000" height="5.000000" fill="none" stroke="red" stroke-width="1" />
<rect x="324.500000" y="567.500000" width="5.000000" height="5.000000" fill="none" stroke="red" stroke-width="1" />
<rect x="331.000000" y="567.500000" width="5.000000" height="5.000000" fill="none" stroke="red" stroke-width="1" />
<rect x="337.500000" y="567.500000" width="5.000000" height="5.000000" fill="none" stroke="red" stroke-width="1" />
<rect x="344.000000" y="567.500000" width="5.000000" height="5.000000" fill="none" stroke="red" stroke-width="1" />
<rect x="350.500000" y="567.500000" width="5.000000" height="5.000000" fill="none" stroke="red" stroke-width="1" />
<rect x="357.000000" y="567.500000" width="5.000000" height="5.000000" fill="none" stroke="red" stroke-width="1" />
<rect x="311.500000" y="574.000000" width="5.000000" height="5.000000" fill="none" stroke="red" stroke-width="1" />
<rect x="311.500000" y="580.500000" width="5.000000" height="5.000000" fill="none" stroke="red" stroke-width="1" />
<rect x="311.500000" y="587.000000" width="5.000000" height="5.000000" fill="none" stroke="red" stroke-width="1" />
<rect x="311.500000" y="593.500000" width="5.000000" height="5.000000" fill="none" stroke="red" stroke-width="1" />
<rect x="311.500000" y="600.000000" width="5.000000" height="5.000000" fill="none" stroke="red" stroke-width="1" />
<rect x="311.500000" y="606.500000" width="5.000000" height="5.000000" fill="none" stroke="red" stroke-width="1" />
<rect x="311.500000" y="613.000000" width="5.000000" height="5.000000" fill="none" stroke="red" stroke-width="1" />
<rect x="318.000000" y="613.000000" width="5.000000" height="5.000000" fill="none" stroke="red" stroke-width="1" />
<rect x="324.500000" y="613.000000" width="5.000000" height="5.000000" fill="none" stroke="red" stroke-width="1" />
<rect x="331.000000" y="613.000000" width="5.000000" height="5.000000" fill="none" stroke="red" stroke-width="1" />
<rect x="337.500000" y="613.000000" width="5.000000" height="5.000000" fill="none" stroke="red" stroke-width="1" />
<rect x="344.000000" y="613.000000" width="5.000000" height="5.000000" fill="none" stroke="red" stroke-width="1" />
<rect x="350.500000" y="613.000000" width="5.000000" height="5.000000" fill="none" stroke="red" stroke-width="1" />
<rect x="357.000000" y="613.000000" width="5.000000" height="5.000000" fill="none" stroke="red" stroke-width="1" />
<ellipse cx="10.000000" cy="645.000000" rx="10.000000" ry="15.000000" fill="none" stroke="red"/>
<ellipse cx="15.000000" cy="652.500000" rx="10.000000" ry="15.000000" fill="none" stroke="red"/>
</svg>
